<svg  style="fill: #b1b3b5" xmlns="http://www.w3.org/2000/svg" viewBox="0 0 24 30" x="0px" y="0px"><title>music, microphone, podcast, audio</title>

    <path  d="M12,15a5.006,5.006,0,0,0,5-5V6A5,5,0,0,0,7,6v4A5.006,5.006,0,0,0,12,15ZM9,6a3,3,0,0,1,6,0v4a3,3,0,0,1-6,0Z" style="fill: #b1b3b5"/>
    <path  d="M11,18.941V21H8a1,1,0,0,0,0,2h8a1,1,0,0,0,0-2H13V18.941A9.011,9.011,0,0,0,21,10V8a1,1,0,0,0-2,0v2A7,7,0,0,1,5,10V8A1,1,0,0,0,3,8v2A9.011,9.011,0,0,0,11,18.941Z" />
    <text  x="0" y="39" fill="#111111" font-size="5px" font-weight="bold" font-family="'Helvetica Neue', Helvetica, Arial-Unicode, Arial, Sans-serif">Created by Royyan Wijaya</text>
    <text x="0" y="44" fill="#111111" font-size="5px" font-weight="bold" font-family="'Helvetica Neue', Helvetica, Arial-Unicode, Arial, Sans-serif">from the Noun Project</text>
</svg>