<svg xmlns="http://www.w3.org/2000/svg" viewBox="0 0 100 125" x="0px" y="0px" style="fill: #b1b3b5">
<title>Chat Conversation</title>
<g data-name="Layer 16">
<path d="M90.08,31.3H77V24.846A6.892,6.892,0,0,0,70.078,18H9.922A6.892,6.892,0,0,0,3,24.846V75.255a5.126,5.126,0,0,0,3.207,4.791,5.284,5.284,0,0,0,5.758-1.105L23,68.08v5.98a6.928,6.928,0,0,0,6.92,6.92H75.854L88.026,93.144a5.191,5.191,0,0,0,3.69,1.558,5.341,5.341,0,0,0,2.043-.413A5.234,5.234,0,0,0,97,89.44V38.22A6.927,6.927,0,0,0,90.08,31.3ZM9.159,76.09a1.268,1.268,0,0,1-1.407.267A1.17,1.17,0,0,1,7,75.255V24.846A2.888,2.888,0,0,1,9.922,22H70.078A2.888,2.888,0,0,1,73,24.846V60.115a2.887,2.887,0,0,1-2.922,2.845H23.318a2,2,0,0,0-1.4.575ZM93,89.44a1.254,1.254,0,0,1-2.146.876L78.093,77.564a2,2,0,0,0-1.413-.584H29.92A2.923,2.923,0,0,1,27,74.06v-7.1H70.078A6.891,6.891,0,0,0,77,60.115V35.3H90.08A2.923,2.923,0,0,1,93,38.22Z"/></g><text x="0" y="115" fill="#2a2f32" font-size="5px" font-weight="bold" font-family="'Helvetica Neue', Helvetica, Arial-Unicode, Arial, Sans-serif">Created by Moch Rizki Eko Waluyo</text>
<text x="0" y="120" fill="#2a2f32" font-size="0" font-weight="bold" font-family="'Helvetica Neue', Helvetica, Arial-Unicode, Arial, Sans-serif">from the Noun Project</text>
    </svg>