<?xml version="1.0" standalone="no"?>
<!DOCTYPE svg PUBLIC "-//W3C//DTD SVG 20010904//EN"
 "http://www.w3.org/TR/2001/REC-SVG-20010904/DTD/svg10.dtd">
<svg version="1.0" xmlns="http://www.w3.org/2000/svg"
 width="225.000000pt" height="225.000000pt" viewBox="0 0 225.000000 225.000000"
 preserveAspectRatio="xMidYMid meet" style=" fill: b1b3b5">

<g style=" fill: #b1b3b5" transform="translate(0.000000,225.000000) scale(0.100000,-0.100000)"
fill="#000000" stroke="none">
<path d="M1575 2237 c-110 -28 -127 -44 -787 -705 -548 -549 -640 -645 -666
-698 -48 -95 -66 -169 -66 -269 0 -220 120 -411 320 -507 159 -77 336 -74 504
8 72 35 104 65 693 653 339 338 620 624 623 634 3 10 -2 29 -10 42 -39 59 -27
69 -686 -589 -529 -528 -623 -618 -675 -644 -185 -92 -383 -60 -528 85 -139
139 -171 339 -85 523 28 60 82 116 657 691 497 497 636 631 676 650 73 35 190
33 260 -3 109 -57 169 -154 169 -273 0 -129 18 -107 -612 -738 -312 -313 -579
-575 -594 -583 -97 -51 -216 62 -167 159 6 12 143 155 305 317 202 203 294
302 294 317 0 29 -26 53 -58 53 -22 0 -83 -56 -328 -302 -265 -267 -303 -309
-318 -352 -31 -94 -12 -177 57 -244 70 -68 149 -87 243 -56 44 15 103 71 612
578 310 308 579 582 598 608 55 74 78 148 77 248 0 132 -52 239 -154 320 -93
73 -241 106 -354 77z"/>
</g>
</svg>
