<?xml version="1.0" standalone="no"?>
<!DOCTYPE svg PUBLIC "-//W3C//DTD SVG 20010904//EN"
 "http://www.w3.org/TR/2001/REC-SVG-20010904/DTD/svg10.dtd">
<svg version="1.0" xmlns="http://www.w3.org/2000/svg"
 width="225.000000pt" height="225.000000pt" viewBox="0 0 225.000000 225.000000"
 preserveAspectRatio="xMidYMid meet">

<g style="fill: #b1b3b5" transform="translate(0.000000,225.000000) scale(0.100000,-0.100000)"
fill="#000000" stroke="none">
<path d="M985 2239 c-158 -20 -359 -97 -496 -190 -81 -55 -198 -166 -260 -248
-65 -87 -153 -264 -184 -374 -106 -377 -4 -787 268 -1074 96 -101 182 -164
312 -228 328 -163 672 -163 1000 0 130 64 216 127 312 228 88 92 141 171 198
290 119 248 143 523 69 785 -30 109 -118 287 -183 373 -240 316 -643 487
-1036 438z m385 -158 c94 -25 243 -91 315 -141 68 -47 178 -153 232 -224 60
-79 136 -239 164 -346 20 -72 23 -110 23 -245 0 -187 -17 -270 -89 -422 -53
-113 -89 -166 -173 -254 -89 -95 -169 -153 -287 -210 -158 -76 -240 -93 -430
-93 -190 0 -272 17 -430 93 -118 57 -198 115 -287 210 -84 88 -120 141 -173
254 -72 152 -89 235 -89 422 0 135 3 173 23 245 28 107 104 267 164 346 54 71
164 177 232 224 103 71 286 142 420 163 77 13 301 -1 385 -22z"/>
<path d="M749 1501 c-35 -34 -39 -44 -39 -87 0 -86 55 -144 135 -144 75 0 135
59 135 133 0 82 -58 137 -144 137 -43 0 -53 -4 -87 -39z"/>
<path d="M1333 1520 c-115 -70 -63 -250 72 -250 80 0 135 58 135 144 0 43 -4
53 -39 87 -34 35 -44 39 -87 39 -31 0 -61 -7 -81 -20z"/>
<path d="M532 853 l-52 -24 36 -70 c74 -140 216 -261 376 -321 107 -40 273
-50 391 -24 211 47 385 190 474 388 11 27 11 28 -44 53 -30 14 -58 25 -62 25
-3 0 -17 -21 -31 -47 -59 -113 -217 -232 -356 -268 -74 -19 -200 -19 -283 0
-139 33 -286 143 -348 261 -15 30 -32 54 -38 53 -5 0 -34 -12 -63 -26z"/>
</g>
</svg>
