<?xml version="1.0" standalone="no"?>
<!DOCTYPE svg PUBLIC "-//W3C//DTD SVG 20010904//EN"
 "http://www.w3.org/TR/2001/REC-SVG-20010904/DTD/svg10.dtd">
<svg version="1.0" xmlns="http://www.w3.org/2000/svg"
 width="860.000000pt" height="773.000000pt" viewBox="0 0 860.000000 773.000000"
 preserveAspectRatio="xMidYMid meet">

<g style="fill: #b1b3b5" transform="translate(0.000000,773.000000) scale(0.100000,-0.100000)"
fill="#000000" stroke="none">
<path d="M4090 7319 c-766 -47 -1457 -325 -2038 -819 -1072 -910 -1484 -2381
-1042 -3720 174 -527 446 -967 845 -1365 493 -493 1120 -823 1805 -950 225
-42 322 -50 630 -50 309 0 372 5 610 46 545 94 1072 330 1530 685 141 109 449
413 558 551 623 789 877 1757 717 2729 -195 1179 -972 2164 -2075 2632 -358
152 -732 237 -1155 262 -186 11 -201 11 -385 -1z m550 -244 c574 -66 1114
-275 1557 -603 58 -42 116 -84 129 -93 13 -9 76 -62 138 -119 523 -471 887
-1126 1001 -1800 44 -257 49 -327 49 -595 0 -278 -11 -393 -60 -639 -100 -502
-333 -993 -663 -1396 -92 -112 -268 -300 -283 -300 -4 0 -8 13 -8 28 0 56 -33
219 -62 307 -189 570 -774 1035 -1508 1199 -244 54 -314 61 -630 61 -316 0
-386 -7 -630 -61 -734 -164 -1319 -629 -1508 -1199 -30 -91 -62 -251 -62 -312
0 -18 -4 -33 -10 -33 -5 0 -42 33 -82 72 -365 362 -648 835 -804 1343 -41 134
-87 339 -111 500 -26 173 -26 698 0 870 56 372 138 648 278 943 165 349 359
623 639 903 340 341 769 608 1235 769 210 72 500 136 725 159 147 15 523 12
670 -4z"/>
<path d="M4085 6124 c-635 -115 -1095 -658 -1095 -1294 0 -367 136 -688 401
-945 249 -242 560 -368 909 -368 349 0 660 126 909 368 210 203 333 433 381
712 126 725 -354 1401 -1084 1528 -110 19 -313 18 -421 -1z"/>
</g>
</svg>
