<?xml version="1.0" standalone="no"?>
<!DOCTYPE svg PUBLIC "-//W3C//DTD SVG 20010904//EN"
 "http://www.w3.org/TR/2001/REC-SVG-20010904/DTD/svg10.dtd">
<svg version="1.0" xmlns="http://www.w3.org/2000/svg"
 width="360.000000pt" height="360.000000pt" viewBox="0 0 360.000000 360.000000"
 preserveAspectRatio="xMidYMid meet">

<g style="fill: #b1b3b5" transform="translate(0.000000,360.000000) scale(0.100000,-0.100000)"
fill="#000000" stroke="none">
<path d="M1435 2901 c-211 -34 -386 -147 -506 -328 -75 -111 -108 -230 -109
-384 0 -206 64 -363 210 -510 72 -73 100 -93 180 -132 131 -63 214 -81 359
-74 129 5 200 24 309 82 37 19 71 35 76 35 6 0 146 -135 311 -300 l301 -300
46 0 c79 0 135 68 121 146 -4 21 -86 110 -307 332 -278 280 -300 304 -288 323
134 214 153 473 52 695 -87 192 -257 337 -462 394 -83 23 -219 33 -293 21z
m198 -246 c224 -47 377 -235 379 -465 1 -193 -101 -353 -280 -438 -68 -33 -87
-37 -173 -40 -74 -3 -110 0 -151 13 -146 48 -237 124 -300 252 -40 79 -43 92
-46 184 -4 79 0 111 17 166 49 162 188 291 353 327 83 18 119 19 201 1z"/>
</g>
</svg>
