<?xml version="1.0" standalone="no"?>
<!DOCTYPE svg PUBLIC "-//W3C//DTD SVG 20010904//EN"
 "http://www.w3.org/TR/2001/REC-SVG-20010904/DTD/svg10.dtd">
<svg version="1.0" xmlns="http://www.w3.org/2000/svg"
 width="860.000000pt" height="914.000000pt" viewBox="0 0 860.000000 914.000000"
 preserveAspectRatio="xMidYMid meet">

<g style="fill: #b1b3b5" transform="translate(0.000000,914.000000) scale(0.100000,-0.100000)"
fill="#000000" stroke="none">
<path d="M551 8710 c-108 -39 -174 -102 -216 -207 -34 -86 -32 -150 9 -336 19
-83 68 -312 110 -507 69 -323 128 -597 337 -1575 215 -1000 231 -1070 257
-1118 25 -46 66 -89 126 -133 l28 -20 -50 -36 c-27 -20 -62 -52 -77 -72 -52
-68 -36 -3 -316 -1311 -49 -231 -121 -566 -159 -745 -38 -179 -95 -442 -125
-585 -31 -143 -79 -368 -108 -500 -65 -302 -68 -368 -19 -467 75 -152 247
-230 408 -183 61 17 274 119 1274 610 322 158 662 325 755 370 94 45 397 194
675 330 278 136 573 280 655 320 83 40 276 134 430 210 154 75 471 231 705
345 234 114 657 321 940 460 283 139 693 339 910 445 1157 565 1108 537 1165
651 26 53 29 69 30 154 0 88 -3 101 -33 162 -58 118 12 78 -1077 610 -580 284
-788 385 -1345 658 -565 277 -1225 599 -1815 887 -236 116 -641 314 -900 440
-258 127 -708 346 -1000 488 -291 142 -678 332 -860 423 -416 207 -523 252
-602 252 -32 -1 -82 -10 -112 -20z m534 -540 c204 -100 543 -267 755 -370 212
-103 534 -261 715 -350 182 -89 375 -184 430 -210 55 -26 249 -121 430 -210
182 -89 407 -199 500 -245 94 -45 379 -185 635 -310 619 -303 1909 -934 2903
-1420 268 -131 484 -242 480 -245 -4 -4 -138 -71 -298 -148 -159 -77 -474
-231 -698 -341 -225 -111 -410 -201 -412 -201 -1 0 -195 -95 -431 -211 -236
-116 -478 -235 -539 -264 -60 -29 -335 -162 -610 -297 -275 -135 -797 -391
-1160 -568 -363 -177 -874 -427 -1135 -555 -1941 -950 -1973 -965 -1977 -961
-4 4 38 213 131 641 142 661 305 1419 352 1645 115 551 198 917 209 928 15 16
42 18 765 67 289 20 656 44 815 55 160 11 646 44 1080 75 793 55 1673 115
1687 115 5 0 8 11 8 25 0 19 -5 25 -22 25 -13 0 -81 4 -153 10 -71 5 -398 28
-725 50 -327 22 -752 51 -945 65 -571 40 -1042 73 -1530 106 -253 17 -574 38
-713 48 -190 13 -256 20 -266 31 -8 9 -59 226 -115 490 -56 261 -122 567 -146
680 -24 113 -67 311 -94 440 -58 274 -142 667 -207 965 -65 300 -134 627 -134
636 0 12 15 6 415 -191z"/>
</g>
</svg>
