<?xml version="1.0" standalone="no"?>
<!DOCTYPE svg PUBLIC "-//W3C//DTD SVG 20010904//EN"
 "http://www.w3.org/TR/2001/REC-SVG-20010904/DTD/svg10.dtd">
<svg version="1.0" xmlns="http://www.w3.org/2000/svg"
 width="225.000000pt" height="225.000000pt" viewBox="0 0 225.000000 225.000000"
 preserveAspectRatio="xMidYMid meet">

<g style=" fill: #b1b3b5" transform="translate(0.000000,225.000000) scale(0.100000,-0.100000)"
fill="#000000" stroke="none">
<path d="M1066 2030 c-43 -14 -90 -49 -117 -88 -18 -27 -24 -51 -27 -106 -3
-86 19 -133 86 -181 39 -27 52 -30 117 -30 65 0 78 3 117 30 60 43 88 96 88
168 0 89 -38 155 -113 193 -36 19 -113 26 -151 14z"/>
<path d="M1035 1313 c-76 -40 -115 -103 -115 -188 0 -121 85 -205 205 -205
121 0 205 84 205 205 0 84 -39 148 -112 186 -46 24 -140 25 -183 2z"/>
<path d="M1050 619 c-45 -19 -90 -60 -111 -101 -29 -57 -24 -160 10 -210 86
-126 265 -126 351 -1 36 53 40 162 8 218 -37 63 -96 99 -171 102 -34 2 -73 -2
-87 -8z"/>
</g>
</svg>
