<?xml version="1.0" standalone="no"?>
<!DOCTYPE svg PUBLIC "-//W3C//DTD SVG 20010904//EN"
 "http://www.w3.org/TR/2001/REC-SVG-20010904/DTD/svg10.dtd">
<svg version="1.0" xmlns="http://www.w3.org/2000/svg"
 width="225.000000pt" height="225.000000pt" viewBox="0 0 225.000000 225.000000"
 preserveAspectRatio="xMidYMid meet">

<g style=" fill: #b1b3b5" transform="translate(0.000000,225.000000) scale(0.100000,-0.100000)"
fill="#000000" stroke="none">
<path d="M990 2244 c-14 -2 -52 -9 -85 -15 -49 -8 -182 -46 -193 -54 -3 -3 89
-165 94 -165 2 0 39 10 81 22 111 32 304 31 418 -2 107 -30 143 -35 170 -20
43 23 58 91 29 135 -31 48 -203 93 -374 100 -63 2 -126 2 -140 -1z"/>
<path d="M353 1932 c-79 -79 -148 -168 -202 -261 -63 -109 -65 -104 39 -131
50 -12 92 -21 93 -19 2 2 22 36 44 74 41 70 172 230 195 237 13 5 -77 168 -93
168 -4 0 -39 -31 -76 -68z"/>
<path d="M1925 1765 c-14 -13 -25 -33 -25 -44 0 -11 25 -82 55 -158 30 -76 61
-166 70 -198 104 -400 -64 -817 -414 -1029 -149 -90 -342 -146 -500 -146 l-66
0 -23 -87 c-17 -68 -19 -89 -10 -96 19 -12 240 -1 324 17 428 91 771 411 874
815 42 165 47 342 15 501 -32 155 -132 390 -183 430 -35 28 -87 26 -117 -5z"/>
<path d="M1059 1501 c-29 -29 -29 -30 -29 -155 l0 -126 -125 0 c-120 0 -127
-1 -150 -24 -32 -32 -40 -69 -25 -107 22 -52 42 -59 177 -59 l123 0 0 -126 c0
-125 0 -126 29 -155 22 -21 39 -29 66 -29 27 0 44 8 66 29 29 29 29 30 29 155
l0 126 120 0 c133 0 159 8 180 60 9 22 9 37 0 64 -18 57 -43 66 -180 66 l-120
0 0 126 c0 125 0 126 -29 155 -22 21 -39 29 -66 29 -27 0 -44 -8 -66 -29z"/>
<path d="M6 1192 c-9 -92 10 -255 41 -360 14 -48 28 -95 30 -104 3 -10 8 -18
12 -18 12 0 161 90 161 98 0 4 -9 34 -19 67 -24 76 -45 247 -37 297 4 21 3 38
-1 38 -5 0 -47 11 -94 24 l-87 24 -6 -66z"/>
<path d="M327 474 l-78 -45 29 -37 c39 -49 124 -128 192 -179 56 -42 208 -128
215 -122 7 7 49 179 44 182 -2 2 -40 25 -84 52 -44 27 -114 82 -156 122 -42
40 -78 73 -80 73 -3 0 -39 -20 -82 -46z"/>
</g>
</svg>
